<svg xmlns="http://www.w3.org/2000/svg" preserveAspectRatio="none" width="34px" height="34px" viewBox="0 0 33 33" xmlns:xlink="http://www.w3.org/1999/xlink"><svg x="0"><path id="q" fill="#c3c3c3" d="m 15.630146,7.5617885 q -1.998613,1.1481562 -3.231793,1.998683 -1.233191,0.8079645 -2.5088923,2.1686325 -1.1906674,1.27574 -1.8285183,2.679063 -0.6378608,1.403228 -0.8929986,3.614516 l 2.0411349,0 q 2.6364653,0 4.1247933,1.318204 1.530859,1.27574 1.530859,3.784564 0,1.786076 -1.360763,3.359445 -1.318232,1.530812 -3.6570383,1.530812 -3.657037,0 -5.2304086,-2.381338 -1.573371,-2.423799 -1.573371,-6.336042 0,-2.763991 1.1906587,-5.017744 1.1906586,-2.296314 2.8916126,-4.082292 1.7434673,-1.8285375 3.6995616,-3.1041819 1.956081,-1.27574 3.274324,-2.0837054 l 1.530839,2.5513838 z"/></svg><svg x="15"><use xlink:href="#q"/></svg></svg>