<?xml version="1.0" standalone="no"?>
<!DOCTYPE svg PUBLIC "-//W3C//DTD SVG 20010904//EN"
 "http://www.w3.org/TR/2001/REC-SVG-20010904/DTD/svg10.dtd">
<svg version="1.0" xmlns="http://www.w3.org/2000/svg"
 width="1200.000000pt" height="444.000000pt" viewBox="0 0 1200.000000 444.000000"
 preserveAspectRatio="xMidYMid meet">

<g transform="translate(0.000000,444.000000) scale(0.100000,-0.100000)"
fill="#000000" stroke="none">
<path d="M3358 3403 l-328 -3 0 -135 0 -135 215 0 215 0 0 -145 0 -145 -216 0
-216 0 4 -237 3 -238 37 -76 c64 -130 200 -228 330 -237 l58 -4 0 -149 0 -149
65 0 65 0 0 140 0 140 325 0 c354 0 372 2 413 55 26 33 28 57 6 91 -24 36 -77
64 -263 139 -337 136 -429 204 -467 346 -31 118 -5 259 62 337 39 46 144 102
229 122 30 7 176 14 368 17 l317 5 0 -140 0 -141 -317 -3 c-345 -3 -351 -4
-373 -59 -24 -57 30 -106 181 -162 463 -174 579 -275 579 -501 0 -192 -92
-300 -306 -362 -47 -13 -119 -17 -361 -21 l-303 -5 0 -24 0 -24 1288 1 c1051
1 1275 4 1222 14 -435 82 -685 523 -538 950 157 453 731 617 1118 320 107 -82
197 -212 243 -347 19 -59 21 -89 24 -475 l4 -413 -145 0 -146 0 0 40 c0 22 -2
40 -5 40 -3 0 -22 -11 -43 -25 -53 -35 -154 -74 -231 -89 -59 -12 -13 -14 412
-15 l477 -1 0 -410 0 -410 710 0 709 0 -25 48 c-95 177 -89 457 13 642 65 117
87 139 401 398 23 19 42 38 42 41 0 3 -28 28 -62 56 -87 70 -114 101 -150 175
-32 63 -33 69 -33 190 0 122 1 127 34 195 105 213 361 301 578 198 55 -26 173
-125 173 -146 0 -6 6 -18 14 -26 52 -58 72 -249 38 -353 -36 -110 -73 -151
-297 -336 -11 -9 -85 -70 -165 -136 -80 -66 -150 -125 -156 -130 -6 -6 -26
-22 -45 -36 -82 -60 -156 -146 -195 -225 -38 -79 -39 -81 -39 -200 l0 -120 42
-86 c49 -100 112 -164 212 -218 197 -105 425 -68 579 93 192 200 187 480 -12
678 -37 37 -66 74 -63 81 6 17 141 127 155 127 20 0 123 -110 168 -180 66
-103 96 -202 102 -339 6 -143 -12 -237 -65 -340 -13 -24 -23 -46 -23 -47 0 -2
234 -4 520 -4 l520 0 0 25 c0 18 5 25 19 25 17 0 19 11 23 148 4 162 14 193
71 236 42 31 134 30 177 -3 19 -13 35 -19 39 -14 12 19 70 43 102 43 55 0 115
-36 138 -83 l21 -42 -1 560 c-1 483 -3 552 -14 500 -18 -81 -28 -112 -58 -170
-142 -282 -438 -429 -774 -385 -148 19 -258 75 -374 191 -85 84 -146 180 -181
284 -20 61 -23 89 -23 225 0 137 3 163 24 224 89 258 296 435 561 481 65 11
-24 13 -640 13 -620 0 -705 -2 -640 -13 225 -39 408 -174 510 -375 65 -128 90
-341 56 -480 -46 -186 -117 -285 -330 -461 -76 -63 -149 -123 -163 -135 l-24
-20 32 -25 c162 -124 229 -239 229 -396 0 -170 -92 -313 -248 -386 -84 -39
-216 -49 -307 -22 -116 33 -214 116 -268 225 -29 58 -32 75 -35 170 -3 88 0
114 17 161 41 108 73 141 446 448 336 276 357 297 405 395 75 153 62 327 -35
473 -124 187 -356 269 -557 197 -290 -104 -421 -418 -285 -681 30 -58 138
-183 158 -183 17 0 9 -28 -13 -43 -13 -9 -37 -28 -55 -44 -59 -53 -73 -63 -87
-63 -17 0 -99 78 -138 130 -72 98 -114 209 -128 337 -28 267 77 509 287 659
78 56 210 109 304 122 42 6 -180 10 -656 10 -481 0 -698 -4 -655 -10 70 -10
180 -46 245 -81 147 -79 280 -243 335 -412 22 -67 23 -87 27 -477 l5 -408
-151 0 -151 0 0 373 c0 346 -1 376 -20 426 -54 149 -183 258 -335 283 -213 35
-427 -119 -474 -340 -7 -33 -11 -183 -11 -397 l0 -345 -145 0 -145 0 0 388 c0
349 2 394 20 464 68 272 289 474 570 523 73 13 68 13 -152 14 l-228 1 0 135 0
135 -1140 0 -1140 0 0 -135 0 -135 213 -2 212 -3 3 -147 3 -148 -216 0 -215 0
0 -224 c0 -133 4 -237 11 -257 53 -168 203 -297 357 -307 l62 -4 0 -151 0
-150 -82 7 c-100 7 -156 24 -264 76 -142 69 -274 212 -332 360 -46 120 -46
112 -49 678 l-4 542 -547 -2 c-301 -2 -694 -4 -874 -5z m7553 -2075 c118 -35
175 -185 113 -297 -38 -71 -91 -101 -175 -101 -61 0 -72 3 -110 33 -61 46 -79
76 -86 138 -7 76 10 131 56 176 61 59 125 75 202 51z m-301 -37 c0 -37 -1 -39
-42 -45 -115 -19 -172 -100 -117 -170 28 -36 70 -56 119 -56 l40 0 0 -46 0
-47 -60 6 c-70 8 -142 39 -170 75 -42 53 -49 157 -14 224 18 35 76 79 117 88
17 4 53 8 80 9 l47 1 0 -39z m-348 -174 c12 -18 9 -62 -4 -75 -7 -7 -26 -12
-43 -12 -38 0 -55 16 -55 51 0 50 77 76 102 36z"/>
<path d="M10794 1231 c-82 -50 -58 -192 35 -214 54 -13 131 51 131 110 0 58
-55 122 -105 123 -16 0 -44 -9 -61 -19z"/>
<path d="M660 2915 c0 -511 3 -550 47 -641 62 -127 177 -208 318 -223 l60 -6
3 -147 3 -148 347 1 c191 1 338 3 327 5 -101 20 -140 32 -203 62 -191 90 -330
262 -383 473 -30 117 -24 280 15 393 102 300 363 486 681 486 195 0 353 -62
489 -191 93 -88 154 -183 192 -297 21 -62 27 -104 31 -214 l6 -138 -557 0
-557 0 6 -22 c12 -42 82 -133 131 -170 27 -21 77 -49 112 -63 128 -51 299 -25
400 61 22 19 47 34 56 34 22 0 256 -133 256 -145 -1 -15 -62 -78 -122 -125
-87 -70 -217 -126 -328 -143 -14 -3 288 -4 670 -4 382 0 684 1 670 4 -113 17
-271 90 -352 163 -105 94 -169 194 -220 342 -21 61 -22 82 -25 601 l-4 537
-1035 0 -1034 0 0 -485z"/>
<path d="M10978 3133 c12 -2 32 -2 45 0 12 2 2 4 -23 4 -25 0 -35 -2 -22 -4z"/>
<path d="M11188 3081 c155 -65 292 -188 360 -324 37 -73 49 -107 67 -192 12
-54 13 -29 14 248 l1 307 -267 0 -268 -1 93 -38z"/>
<path d="M1790 2866 c-118 -27 -233 -114 -285 -216 -14 -27 -25 -52 -25 -55 0
-3 178 -5 395 -5 330 0 395 2 395 14 0 24 -79 133 -123 168 -57 47 -114 75
-189 93 -73 17 -94 17 -168 1z"/>
<path d="M6243 2830 c-87 -18 -196 -89 -249 -163 -65 -90 -78 -130 -78 -247
-1 -98 1 -109 31 -173 42 -89 122 -168 210 -210 62 -28 77 -31 168 -32 92 0
105 3 168 32 132 63 225 183 247 321 45 277 -218 527 -497 472z"/>
<path d="M10830 2831 c-71 -15 -166 -69 -219 -126 -199 -210 -136 -532 128
-663 72 -35 79 -37 175 -37 91 1 107 4 167 32 87 40 172 125 213 212 28 60 30
75 31 171 0 99 -2 109 -33 173 -67 137 -207 233 -352 242 -41 2 -91 1 -110 -4z"/>
<path d="M9319 2637 c-60 -23 -96 -54 -123 -109 -45 -89 -30 -174 44 -248 54
-56 134 -120 149 -120 10 0 120 87 157 125 64 65 79 177 32 250 -27 42 -57 71
-97 93 -35 20 -120 24 -162 9z"/>
<path d="M361 2078 l-1 -328 318 1 c174 1 308 3 297 5 -103 21 -134 29 -183
51 -115 51 -222 138 -298 243 -62 86 -97 169 -119 285 -12 64 -13 44 -14 -257z"/>
<path d="M9220 1371 c-81 -115 -60 -247 52 -317 90 -57 205 -39 278 43 75 86
79 182 10 265 l-31 38 -66 -55 c-37 -30 -70 -55 -73 -55 -3 0 -36 25 -73 55
-36 30 -69 55 -71 55 -3 0 -14 -13 -26 -29z"/>
<path d="M11199 1231 c-23 -18 -24 -26 -27 -160 l-4 -141 76 0 76 0 0 113 c0
61 -4 127 -10 146 -17 59 -67 78 -111 42z"/>
<path d="M11429 1231 c-23 -18 -24 -26 -27 -160 l-4 -141 76 0 76 0 0 113 c0
61 -4 127 -10 146 -17 59 -67 78 -111 42z"/>
<path d="M8780 708 l0 -168 253 1 c138 1 241 4 227 6 -70 12 -163 47 -230 87
-93 55 -159 116 -235 221 -13 18 -14 2 -15 -147z"/>
<path d="M9963 827 c-94 -137 -282 -254 -453 -280 -14 -3 89 -5 228 -6 l252
-1 0 160 c0 88 -1 160 -2 160 -2 0 -13 -15 -25 -33z"/>
</g>
</svg>
